<?xml version="1.0" encoding="UTF-8" standalone="no"?>
<!-- Created with Inkscape (http://www.inkscape.org/) -->

<svg
   version="1.1"
   id="svg1"
   width="1608.4736"
   height="435.15976"
   viewBox="0 0 1608.4736 435.15976"
   sodipodi:docname="NEST FERTLITY v1.0.pdf"
   xmlns:inkscape="http://www.inkscape.org/namespaces/inkscape"
   xmlns:sodipodi="http://sodipodi.sourceforge.net/DTD/sodipodi-0.dtd"
   xmlns="http://www.w3.org/2000/svg"
   xmlns:svg="http://www.w3.org/2000/svg">
  <defs
     id="defs1">
    <clipPath
       clipPathUnits="userSpaceOnUse"
       id="clipPath837">
      <path
         d="M 33,1113 H 1953 V 33 H 33 Z"
         transform="translate(-647.00349,-439.11441)"
         id="path837" />
    </clipPath>
    <clipPath
       clipPathUnits="userSpaceOnUse"
       id="clipPath839">
      <path
         d="M 33,1113 H 1953 V 33 H 33 Z"
         transform="translate(-461.11741,-605.85521)"
         id="path839" />
    </clipPath>
    <clipPath
       clipPathUnits="userSpaceOnUse"
       id="clipPath841">
      <path
         d="M 33,1113 H 1953 V 33 H 33 Z"
         transform="translate(-437.24349,-610.14722)"
         id="path841" />
    </clipPath>
    <clipPath
       clipPathUnits="userSpaceOnUse"
       id="clipPath843">
      <path
         d="M 33,1113 H 1953 V 33 H 33 Z"
         transform="translate(-703.10289,-513.86692)"
         id="path843" />
    </clipPath>
    <clipPath
       clipPathUnits="userSpaceOnUse"
       id="clipPath845">
      <path
         d="M 33,1113 H 1953 V 33 H 33 Z"
         transform="translate(-774.49179,-493.57161)"
         id="path845" />
    </clipPath>
    <clipPath
       clipPathUnits="userSpaceOnUse"
       id="clipPath847">
      <path
         d="M 33,1113 H 1953 V 33 H 33 Z"
         transform="translate(-771.60249,-557.58391)"
         id="path847" />
    </clipPath>
    <clipPath
       clipPathUnits="userSpaceOnUse"
       id="clipPath849">
      <path
         d="M 33,1113 H 1953 V 33 H 33 Z"
         transform="translate(-431.86569,-625.46102)"
         id="path849" />
    </clipPath>
    <clipPath
       clipPathUnits="userSpaceOnUse"
       id="clipPath851">
      <path
         d="M 33,1113 H 1953 V 33 H 33 Z"
         transform="translate(-643.05782,-545.00992)"
         id="path851" />
    </clipPath>
    <clipPath
       clipPathUnits="userSpaceOnUse"
       id="clipPath853">
      <path
         d="M 33,1113 H 1953 V 33 H 33 Z"
         transform="translate(-555.18774,-652.53671)"
         id="path853" />
    </clipPath>
    <clipPath
       clipPathUnits="userSpaceOnUse"
       id="clipPath855">
      <path
         d="M 33,1113 H 1953 V 33 H 33 Z"
         transform="translate(-578.57041,-545.64101)"
         id="path855" />
    </clipPath>
    <clipPath
       clipPathUnits="userSpaceOnUse"
       id="clipPath857">
      <path
         d="M 33,1113 H 1953 V 33 H 33 Z"
         transform="translate(-994.67875,-681.02752)"
         id="path857" />
    </clipPath>
    <clipPath
       clipPathUnits="userSpaceOnUse"
       id="clipPath859">
      <path
         d="M 33,1113 H 1953 V 33 H 33 Z"
         transform="translate(-1253.7732,-585.44572)"
         id="path859" />
    </clipPath>
    <clipPath
       clipPathUnits="userSpaceOnUse"
       id="clipPath861">
      <path
         d="M 33,1113 H 1953 V 33 H 33 Z"
         transform="translate(-1302.1128,-506.15992)"
         id="path861" />
    </clipPath>
    <clipPath
       clipPathUnits="userSpaceOnUse"
       id="clipPath863">
      <path
         d="M 33,1113 H 1953 V 33 H 33 Z"
         transform="translate(-1596.1777,-512.56822)"
         id="path863" />
    </clipPath>
    <clipPath
       clipPathUnits="userSpaceOnUse"
       id="clipPath865">
      <path
         d="M 33,1113 H 1953 V 33 H 33 Z"
         transform="translate(-1171.0896,-651.62951)"
         id="path865" />
    </clipPath>
    <clipPath
       clipPathUnits="userSpaceOnUse"
       id="clipPath868">
      <path
         d="M 33,1113 H 1953 V 33 H 33 Z"
         transform="translate(-1544.6841,-461.48781)"
         id="path868" />
    </clipPath>
    <clipPath
       clipPathUnits="userSpaceOnUse"
       id="clipPath870">
      <path
         d="M 33,1113 H 1953 V 33 H 33 Z"
         transform="translate(-1576.3938,-453.36451)"
         id="path870" />
    </clipPath>
  </defs>
  <sodipodi:namedview
     id="namedview1"
     pagecolor="#ffffff"
     bordercolor="#000000"
     borderopacity="0.25"
     inkscape:showpageshadow="2"
     inkscape:pageopacity="0.0"
     inkscape:pagecheckerboard="0"
     inkscape:deskcolor="#d1d1d1">
    <inkscape:page
       x="-4.2925956e-05"
       y="-5.4153037e-07"
       width="1608.4736"
       height="435.15976"
       id="page2"
       margin="0"
       bleed="0" />
  </sodipodi:namedview>
  <g
     id="layer-MC0"
     inkscape:groupmode="layer"
     inkscape:label="Layer 1"
     transform="translate(-5635.7632,-492.46506)">
    <path
       id="path834"
       d="m 5118.4047,1440 h 2560 V 3.71e-5 h -2560 z"
       style="display:none;fill:#542949;fill-opacity:1;fill-rule:nonzero;stroke:none;stroke-width:1.33333"
       sodipodi:insensitive="true" />
    <path
       id="path836"
       d="m 0,0 c -26.168,-15.485 -57.349,-21.085 -87.798,-15.77 -11.991,2.097 -23.404,6.249 -33.867,12.114 5.292,-1.243 10.791,-2.261 16.492,-3.055 30.661,-4.261 59.729,-0.788 84.057,10.041 19.419,8.642 36.639,22.581 49.465,39.672 0.891,0.995 1.754,2.003 2.603,3.023 l 0.023,0.022 C 39.326,55.18 49.434,60.121 59.608,64.246 46.587,38.346 25.567,15.132 0,0 m -174.265,60.308 c 2.461,-3.191 5.055,-6.321 7.779,-9.389 13.61,-15.311 27.809,-27.164 42.42,-35.439 0.08,-0.05 0.16,-0.101 0.246,-0.138 7.455,-4.2 15.015,-7.471 22.661,-9.792 21.764,-6.61 46.161,-6.252 70.552,1.045 9.478,2.836 18.524,6.634 26.926,11.262 -6.041,-4.17 -12.443,-7.784 -19.115,-10.756 -23.621,-10.518 -51.911,-13.88 -81.809,-9.724 -10.285,1.431 -19.888,3.614 -28.773,6.541 -18.64,13.774 -33.181,33.405 -40.887,56.39 m 2.885,-35.883 c -22.175,18.422 -36.546,47.989 -38.44,79.093 -0.965,15.863 1.168,32.338 6.138,48.46 -1.632,-13.537 -0.389,-27.607 3.736,-42.064 3.854,-13.509 10.168,-26.945 18.59,-39.687 0.248,-1.063 0.511,-2.123 0.786,-3.181 0.22,-0.85 0.45,-1.697 0.689,-2.541 0.057,-0.2 0.113,-0.4 0.171,-0.595 6.039,-20.931 17.718,-39.889 33.775,-54.819 0.227,-0.212 0.457,-0.422 0.684,-0.633 -9.762,4.294 -18.489,9.618 -26.129,15.967 m -2.41,179.62 c 26.118,26.06 69.7,42.686 110.63,42.686 2.734,0 5.458,-0.075 8.163,-0.226 24.728,-1.376 48.906,-9.174 69.321,-21.615 2.519,-2.495 4.942,-5.106 7.26,-7.826 16.797,-19.72 27.984,-45.456 31.492,-72.469 1.89,-14.541 1.509,-28.938 -0.989,-42.58 2.026,16.126 1.003,32.65 -3.184,48.238 -3.61,13.446 -9.473,26.135 -17.423,37.716 -8.029,11.699 -17.795,21.687 -29.025,29.683 -3.942,2.807 -8.124,5.395 -12.43,7.692 -20.53,10.956 -44.203,15.54 -66.656,12.897 -17.31,-2.038 -34.587,-8.507 -49.964,-18.709 -14.969,-9.934 -27.897,-23.212 -37.384,-38.401 -5.098,-8.162 -9.366,-17.039 -12.687,-26.386 -0.914,-2.57 -1.751,-5.171 -2.519,-7.793 -1.166,3.098 -2.77,5.954 -4.664,8.639 -0.654,6.158 -0.364,11.214 0.873,15.03 0.351,1.084 -0.242,2.248 -1.326,2.6 -1.085,0.352 -2.249,-0.244 -2.601,-1.327 -0.973,-3.004 -1.442,-6.607 -1.409,-10.753 -2.345,2.611 -4.891,5.091 -7.46,7.527 0.759,2.366 1.605,4.707 2.563,7.018 4.218,10.17 10.752,19.711 19.419,28.359 m 47.585,41.716 c 18.264,9.24 38.075,13.999 57.519,13.999 7.762,0 15.468,-0.76 22.99,-2.295 16.287,-3.326 31.865,-10.322 45.606,-20.316 -17.328,7.812 -36.031,12.441 -54.677,13.479 -21.281,1.185 -43.946,-2.159 -65.542,-9.67 -16.408,-5.705 -31.252,-13.53 -43.704,-22.972 11.272,11.406 24.019,20.8 37.808,27.775 M -183.557,81.579 c -15.592,27.438 -20.457,56.456 -13.524,82.634 3.537,-3.403 6.851,-6.819 9.524,-10.509 0.043,-0.064 0.086,-0.127 0.134,-0.185 3.197,-4.457 5.448,-9.321 6.019,-15.046 -4.288,-18.614 -5.03,-38.085 -2.153,-56.894 m 61.924,-62.731 -8.479,5.205 c -11.388,7.601 -22.515,17.49 -33.289,29.608 -5.236,5.893 -9.933,11.948 -14.078,18.112 -6.177,26.766 -4.536,55.586 4.703,81.59 3.221,9.067 7.359,17.673 12.298,25.581 19.112,30.599 50.638,51.233 84.33,55.197 21.624,2.544 44.434,-1.873 64.229,-12.438 4.151,-2.215 8.182,-4.708 11.98,-7.413 C 21.563,198.977 37.913,175.245 44.917,149.182 52.288,121.741 49.508,91.294 37.284,65.643 33.935,58.615 29.859,51.914 25.172,45.644 10.78,29.658 -9.234,17.297 -31.79,10.55 -55.401,3.49 -78.974,3.124 -99.96,9.499 c -7.301,2.216 -14.532,5.344 -21.673,9.349 M 55.516,185.374 c 13.083,-20.675 19.605,-45.369 18.371,-69.532 -0.788,-15.455 -4.889,-31.16 -11.664,-46.116 -2.62,-1.024 -5.302,-2.094 -8,-3.264 1.175,2.053 2.389,4.148 3.647,6.308 1.164,1.995 2.367,4.066 3.614,6.237 0.568,0.989 0.229,2.251 -0.762,2.819 -0.985,0.566 -2.247,0.227 -2.816,-0.762 -1.242,-2.165 -2.444,-4.228 -3.6,-6.218 -2.303,-3.954 -4.477,-7.695 -6.491,-11.377 -2.504,-1.269 -4.994,-2.668 -7.435,-4.237 6.279,10.318 11,21.811 14.064,34.332 4.031,16.452 4.977,34.282 2.729,51.563 -3.335,25.634 -13.394,50.165 -28.515,69.765 10.714,-8.525 19.878,-18.482 26.858,-29.518 M 97.679,90.72 C 96.72,91.334 95.446,91.053 94.831,90.092 88.845,80.728 78.68,76.174 67.64,71.834 c 6.096,14.445 9.628,29.259 10.371,43.797 1.275,25.008 -5.473,50.56 -19.009,71.95 -10.09,15.954 -24.579,29.889 -42.193,40.654 -17.246,16.924 -38.78,28.599 -61.678,33.274 -27.267,5.567 -56.816,1.283 -83.199,-12.064 -24.586,-12.438 -45.929,-32.321 -61.721,-57.501 -3.899,-6.216 -7.351,-12.625 -10.345,-19.158 -8.096,7.683 -15.33,15.257 -16.917,25.77 -0.171,1.128 -1.222,1.906 -2.35,1.733 -1.127,-0.171 -1.903,-1.222 -1.733,-2.349 1.529,-10.117 7.641,-17.741 14.591,-24.687 -4.005,0.216 -8.02,-0.058 -11.996,-0.832 -1.119,-0.217 -1.849,-1.3 -1.633,-2.419 0.192,-0.986 1.056,-1.671 2.025,-1.671 0.131,0 0.263,0.012 0.396,0.039 5.15,1 10.579,1.071 15.771,0.233 -9.074,-21.348 -13.266,-43.871 -11.96,-65.336 0.949,-15.597 4.971,-31.219 11.63,-45.176 6.994,-14.663 16.513,-27.057 28.293,-36.841 10.912,-9.067 23.935,-16.122 38.919,-21.113 13.992,-10.219 29.873,-17.053 46.59,-19.97 7.641,-1.335 15.343,-2 23.057,-2 7.907,0 15.826,0.697 23.696,2.101 15.675,2.793 30.432,8.238 43.859,16.182 20.196,11.949 38.763,29.92 52.279,50.597 4.147,6.339 7.771,12.834 10.867,19.426 0.244,0.093 0.482,0.188 0.724,0.282 l 0.037,0.014 c 7.605,-0.521 15.174,-1.852 22.494,-3.965 0.193,-0.055 0.386,-0.082 0.573,-0.082 0.9,0 1.725,0.589 1.986,1.493 0.312,1.096 -0.316,2.24 -1.411,2.556 -5.047,1.454 -10.206,2.548 -15.413,3.281 9.683,4.076 18.375,8.907 24.067,17.818 0.615,0.961 0.335,2.237 -0.628,2.85"
       style="fill:#ffffff;fill-opacity:1;fill-rule:nonzero;stroke:none"
       transform="matrix(1.3333333,0,0,-1.3333333,5978.6713,898.51413)"
       clip-path="url(#clipPath837)"
       inkscape:export-filename="path836.svg"
       inkscape:export-xdpi="96"
       inkscape:export-ydpi="96" />
    <path
       id="path838"
       d="M 0,0 C 14.086,10.839 20.847,30.888 11.859,50.937 -4.004,40.884 -9.601,20.561 0,0"
       style="fill:#b9d26d;fill-opacity:1;fill-rule:nonzero;stroke:none"
       transform="matrix(1.3333333,0,0,-1.3333333,5730.8232,676.19307)"
       clip-path="url(#clipPath839)" />
    <path
       id="path840"
       d="M 0,0 C -10.113,-12.563 -28.783,-17.525 -47.421,-7.567 -38.035,6.734 -19.112,10.573 0,0"
       style="fill:#b9d26d;fill-opacity:1;fill-rule:nonzero;stroke:none"
       transform="matrix(1.3333333,0,0,-1.3333333,5698.9913,670.4704)"
       clip-path="url(#clipPath841)" />
    <path
       id="path842"
       d="M 0,0 C -1.84,16.023 7.743,32.796 27.92,39.071 31.507,22.346 20.952,6.18 0,0"
       style="fill:#b9d26d;fill-opacity:1;fill-rule:nonzero;stroke:none"
       transform="matrix(1.3333333,0,0,-1.3333333,6053.4705,798.84413)"
       clip-path="url(#clipPath843)" />
    <path
       id="path844"
       d="M 0,0 C -8.7,13.578 -26.732,20.519 -46.33,12.625 -38.537,-2.603 -20.14,-8.456 0,0"
       style="fill:#b9d26d;fill-opacity:1;fill-rule:nonzero;stroke:none"
       transform="matrix(1.3333333,0,0,-1.3333333,6148.6557,825.90453)"
       clip-path="url(#clipPath845)" />
    <path
       id="path846"
       d="M 0,0 C -16.972,-2.193 -32.186,-15.781 -34.194,-37.149 -16.114,-36.495 -1.743,-22.1 0,0"
       style="fill:#b9d26d;fill-opacity:1;fill-rule:nonzero;stroke:none"
       transform="matrix(1.3333333,0,0,-1.3333333,6144.8033,740.5548)"
       clip-path="url(#clipPath847)" />
    <path
       id="path848"
       d="M 0,0 C -12.991,9.953 -19.04,28.506 -10.41,47.177 4.246,37.966 9.205,19.147 0,0"
       style="fill:#b9d26d;fill-opacity:1;fill-rule:nonzero;stroke:none"
       transform="matrix(1.3333333,0,0,-1.3333333,5691.8209,650.052)"
       clip-path="url(#clipPath849)" />
    <path
       id="path850"
       d="m 0,0 c -3.231,-12.149 -5.584,-17.13 -13.697,-23.615 -15.326,-12.25 -39.589,-9.319 -51.41,9.07 -7.388,11.492 -3.4,18.414 -7.33,30.313 -6.779,20.529 -30.998,29.206 -48.827,20.72 -38.299,-18.23 -21.604,-103.373 43.082,-122.984 7.252,-2.198 7.866,-2.194 14.969,-0.012 21.129,6.491 33.708,17.841 44.546,30.763 C -8.603,-43.748 1.038,-20.791 0,0"
       style="fill:#e283e2;fill-opacity:1;fill-rule:evenodd;stroke:none"
       transform="matrix(1.3333333,0,0,-1.3333333,5973.4104,757.32013)"
       clip-path="url(#clipPath851)" />
    <path
       id="path852"
       d="m 0,0 c -20.276,-4.263 -31.718,-21.028 -28.696,-39.887 2.776,-17.325 19.778,-32.579 40.722,-28.6 16.314,3.1 32.026,19.403 28.035,40.082 C 36.31,-8.97 17.926,3.77 0,0"
       style="fill:#e283e2;fill-opacity:1;fill-rule:evenodd;stroke:none"
       transform="matrix(1.3333333,0,0,-1.3333333,5856.2503,613.95107)"
       clip-path="url(#clipPath853)" />
    <path
       id="path854"
       d="M 0,0 C 1.659,-14.915 15.435,-27.525 33.084,-25.534 47.836,-23.871 60.259,-9.943 58.49,6.986 56.908,22.129 43.057,34.95 25.438,32.867 10.584,31.112 -1.935,17.394 0,0"
       style="fill:#e283e2;fill-opacity:1;fill-rule:evenodd;stroke:none"
       transform="matrix(1.3333333,0,0,-1.3333333,5887.4272,756.47867)"
       clip-path="url(#clipPath855)" />
    <path
       id="path856"
       d="m 0,0 c 15.015,-14.648 22.522,-36.381 22.522,-65.186 v -112.795 h -57.133 v 104.006 c 0,15.62 -3.42,27.283 -10.254,34.973 -6.839,7.691 -16.725,11.537 -29.662,11.537 -14.409,0 -25.881,-4.458 -34.425,-13.367 -8.548,-8.916 -12.817,-22.158 -12.817,-39.735 v -97.414 h -57.13 V 19.043 h 54.566 V -4.028 c 7.565,8.297 16.966,14.705 28.197,19.227 11.228,4.514 23.559,6.774 36.988,6.774 C -34.735,21.973 -15.016,14.648 0,0"
       style="fill:#ffffff;fill-opacity:1;fill-rule:nonzero;stroke:none"
       transform="matrix(1.3333333,0,0,-1.3333333,6442.2383,575.96333)"
       clip-path="url(#clipPath857)" />
    <path
       id="path858"
       d="m 0,0 h -149.05 c 2.683,-12.211 9.029,-21.853 19.043,-28.93 10.006,-7.085 22.458,-10.621 37.352,-10.621 10.254,0 19.348,1.522 27.283,4.577 7.932,3.051 15.319,7.873 22.158,14.466 l 30.394,-32.96 c -18.555,-21.241 -45.657,-31.86 -81.3,-31.86 -22.218,0 -41.873,4.331 -58.958,13.001 -17.093,8.663 -30.277,20.69 -39.555,36.071 -9.28,15.382 -13.913,32.833 -13.913,52.37 0,19.283 4.576,36.678 13.733,52.185 9.153,15.501 21.726,27.585 37.721,36.256 15.984,8.663 33.873,13 53.649,13 19.283,0 36.74,-4.155 52.367,-12.452 15.624,-8.302 27.892,-20.204 36.808,-35.705 C -3.359,53.891 1.097,35.889 1.097,15.381 1.097,14.648 0.733,9.521 0,0"
       style="fill:#ffffff;fill-opacity:1;fill-rule:nonzero;stroke:none"
       transform="matrix(1.3333333,0,0,-1.3333333,6787.6976,703.40573)"
       clip-path="url(#clipPath859)" />
    <path
       id="path860"
       d="m 0,0 c -15.627,4.028 -28.079,9.093 -37.356,15.197 l 19.042,41.016 c 8.793,-5.619 19.411,-10.195 31.863,-13.731 12.452,-3.543 24.657,-5.311 36.62,-5.311 24.172,0 36.256,5.98 36.256,17.945 0,5.612 -3.295,9.642 -9.886,12.084 -6.594,2.439 -16.728,4.515 -30.398,6.226 -16.112,2.437 -29.424,5.247 -39.915,8.422 -10.502,3.172 -19.595,8.791 -27.286,16.847 -7.688,8.056 -11.536,19.529 -11.536,34.424 0,12.452 3.6,23.495 10.807,33.142 7.195,9.642 17.697,17.149 31.491,22.522 13.79,5.368 30.09,8.058 48.892,8.058 13.917,0 27.767,-1.527 41.564,-4.578 13.79,-3.055 25.206,-7.267 34.242,-12.635 l -19.043,-40.65 c -17.34,9.762 -36.255,14.649 -56.763,14.649 -12.212,0 -21.369,-1.71 -27.467,-5.127 -6.106,-3.421 -9.157,-7.816 -9.157,-13.183 0,-6.106 3.299,-10.38 9.889,-12.819 6.591,-2.442 17.086,-4.76 31.495,-6.957 16.112,-2.69 29.297,-5.557 39.551,-8.606 10.254,-3.057 19.163,-8.607 26.734,-16.663 7.564,-8.057 11.352,-19.29 11.352,-33.692 0,-12.21 -3.66,-23.071 -10.987,-32.593 C 122.681,14.466 111.998,7.077 97.96,1.832 83.919,-3.416 67.255,-6.042 47.971,-6.042 31.612,-6.042 15.62,-4.028 0,0"
       style="fill:#ffffff;fill-opacity:1;fill-rule:nonzero;stroke:none"
       transform="matrix(1.3333333,0,0,-1.3333333,6852.1503,809.12013)"
       clip-path="url(#clipPath861)" />
    <path
       id="path862"
       d="m 0,0 c -5.617,-4.154 -12.512,-7.267 -20.689,-9.339 -8.183,-2.071 -16.788,-3.111 -25.817,-3.111 -23.439,0 -41.568,5.978 -54.385,17.943 -12.817,11.96 -19.227,29.538 -19.227,52.736 v 80.933 h -30.394 v 43.946 h 30.394 v 47.975 h 57.132 v -47.975 h 49.072 v -43.946 h -49.072 v -80.2 c 0,-8.304 2.134,-14.712 6.407,-19.227 4.268,-4.52 10.31,-6.775 18.129,-6.775 9.029,0 16.721,2.437 23.071,7.324 z"
       style="fill:#ffffff;fill-opacity:1;fill-rule:nonzero;stroke:none"
       transform="matrix(1.3333333,0,0,-1.3333333,7244.2369,800.57573)"
       clip-path="url(#clipPath863)" />
    <path
       id="path864"
       d="m 0,0 c -4.548,0.764 -8.292,1.91 -13.134,1.168 -4.862,-0.752 -9.617,-2.114 -14.459,-2.924 -2.197,-0.368 -4.544,-1.408 -5.898,0.904 -3.737,6.361 14.067,11.996 18.051,12.697 6.434,1.119 15.021,0.436 20.072,-4.138 C 6.75,5.795 7.612,4.121 7.525,2.813 7.384,0.475 4.287,-0.725 0,0 M 0.547,18.875 C -35.53,22.691 -50.198,5.478 -75.18,-28.37 c -15.633,-21.204 -44.127,-42.838 -71.819,-41.681 -35.926,1.506 -47.829,-3.518 -73.452,-28.406 55.039,37.314 52.046,15.749 84.892,20.18 27.623,3.718 46.153,24.57 72.223,31.582 24.667,6.65 51.669,-2.412 73.874,13.918 22.16,16.302 20.208,48.466 -9.991,51.652"
       style="fill:#542949;fill-opacity:1;fill-rule:nonzero;stroke:none"
       transform="matrix(1.3333333,0,0,-1.3333333,6677.4527,615.16067)"
       clip-path="url(#clipPath865)" />
    <path
       id="path866"
       d="m 15.867139,-41.871064 v 15.09375 h 23.941406 v 7.792969 H 15.867139 V 2.96875e-5 H 6.6562016 V -49.582002 H 42.85542 v 7.710938 z M 97.476514,-7.7226266 V 2.96875e-5 H 60.281202 V -49.582002 H 96.48042 v 7.710938 H 69.492139 v 12.902344 h 23.941406 v 7.570312 H 69.492139 V -7.7226266 Z M 148.69331,2.96875e-5 138.55659,-14.519502 c -0.42187,0.04687 -1.06054,0.07031 -1.91015,0.07031 H 125.45503 V 2.96875e-5 h -9.21094 V -49.582002 h 20.40235 c 4.29492,0 8.03906,0.708985 11.22656,2.121094 3.1875,1.415039 5.63086,3.445313 7.33594,6.09375 1.70214,2.642578 2.55468,5.783203 2.55468,9.421875 0,3.726563 -0.91113,6.9375 -2.73047,9.632813 -1.82226,2.689453 -4.42968,4.696289 -7.82812,6.023437 L 158.60737,2.96875e-5 Z M 148.48237,-31.945283 c 0,-3.164062 -1.04004,-5.595703 -3.11718,-7.300781 -2.08008,-1.702148 -5.12696,-2.554688 -9.14063,-2.554688 h -10.76953 v 19.769532 h 10.76953 c 4.01367,0 7.06055,-0.858399 9.14063,-2.578125 2.07714,-1.725586 3.11718,-4.171875 3.11718,-7.335938 z m 37.40332,-9.855469 h -16.4414 v -7.78125 h 42.08203 v 7.78125 H 195.08491 V 2.96875e-5 h -9.19922 z m 41.07715,-7.78125 h 9.21094 V 2.96875e-5 h -9.21094 z m 31.09863,0 h 9.21094 v 41.7890629 h 25.9336 V 2.96875e-5 h -35.14454 z m 50.93262,0 h 9.21094 V 2.96875e-5 h -9.21094 z m 41.16504,7.78125 h -16.44141 v -7.78125 h 42.08204 v 7.78125 H 359.35835 V 2.96875e-5 h -9.19922 z m 61.76953,24.304688 V 2.96875e-5 h -9.21094 V -17.355439 l -19.47656,-32.226563 h 9.84375 l 14.51953,24.152344 14.66016,-24.152344 h 9.07031 z m 99.17285,18.26953119 -6.23437,-6.01171879 c -4.63477,3.9609375 -10.18359,5.94140629 -16.65234,5.94140629 -3.44532,0 -6.53907,-0.56835938 -9.28125,-1.69921875 -2.73633,-1.13085934 -4.88379,-2.70117184 -6.44532,-4.71093754 -1.55566,-2.0068359 -2.33203,-4.2832031 -2.33203,-6.8320314 0,-3.070312 0.89356,-5.771484 2.6836,-8.109375 1.79589,-2.334961 4.72558,-4.640625 8.78906,-6.914062 -1.98633,-1.97461 -3.4043,-3.826172 -4.25391,-5.554688 -0.84375,-1.725586 -1.26562,-3.506836 -1.26562,-5.34375 0,-3.498047 1.30664,-6.322265 3.92578,-8.472656 2.625,-2.147461 6.1084,-3.222656 10.45312,-3.222656 4.01367,0 7.22461,0.981445 9.63282,2.941406 2.40527,1.962891 3.60937,4.617187 3.60937,7.96875 0,2.554687 -0.79395,4.825195 -2.37891,6.808594 -1.5791,1.977539 -4.16015,3.981445 -7.74609,6.011718 l 10.69922,10.207032 c 1.17773,-2.320313 2.09766,-5.109375 2.75391,-8.367188 l 7.16015,2.34375 c -0.94629,4.391602 -2.43457,8.167969 -4.46484,11.332031 l 6.23437,5.9531254 z M 490.48823,-43.851533 c -1.93945,0 -3.47461,0.486328 -4.60547,1.453125 -1.13379,0.969727 -1.69921,2.232422 -1.69921,3.785156 0,1.142579 0.30468,2.220704 0.91406,3.234375 0.61523,1.007813 1.79883,2.387696 3.55078,4.136719 2.82715,-1.552734 4.7959,-2.909179 5.90625,-4.066406 1.10742,-1.163086 1.66406,-2.428711 1.66406,-3.796875 0,-1.458984 -0.50976,-2.616211 -1.52344,-3.46875 -1.0166,-0.849609 -2.41992,-1.277344 -4.20703,-1.277344 z m -1.6289,37.3359377 c 4.10742,0 7.69922,-1.2539063 10.76953,-3.7617187 l -13.11328,-12.527344 c -2.83008,1.555664 -4.8252,3.055664 -5.98828,4.5 -1.15723,1.438477 -1.73438,3.052735 -1.73438,4.839844 0,2.080078 0.91992,3.758789 2.76563,5.0390624 1.84277,1.2744141 4.27734,1.9101563 7.30078,1.9101563 z m 71.61328,-43.0664067 h 9.21094 V 2.96875e-5 h -9.21094 z m 76.08398,0 L 614.94722,2.96875e-5 h -9.0586 L 584.20894,-49.582002 h 9.98437 l 16.51172,38.25 16.64062,-38.25 z m 22.94238,7.710938 v 15.09375 h 23.94141 v 7.792969 H 659.49897 V 2.96875e-5 h -9.21093 V -49.582002 h 36.19922 v 7.710938 z m 0,0"
       style="fill:#ffffff;fill-opacity:1;fill-rule:nonzero;stroke:none"
       aria-label="FERTILITY &amp; IVF"
       transform="matrix(1.3333333,0,0,1.3333333,6197.7305,922.50387)" />
    <path
       id="path867"
       d="M 0,0 C 0,0 4.975,7.831 15.385,8.23 24.664,8.585 31.361,0.998 31.71,-8.123 32.114,-18.681 23.874,-31.506 1.656,-43.23 c -23.051,9.99 -32.247,22.148 -32.652,32.705 -0.349,9.121 5.747,17.199 15.027,17.554 C -5.56,7.427 0,0 0,0"
       style="fill:#ce89ce;fill-opacity:1;fill-rule:nonzero;stroke:none"
       transform="matrix(1.3333333,0,0,-1.3333333,7175.5788,868.68293)"
       clip-path="url(#clipPath868)" />
    <path
       id="path869"
       d="m 0,0 c -0.349,9.121 -7.045,16.708 -16.325,16.353 -10.41,-0.399 -15.385,-8.23 -15.385,-8.23 0,0 1.654,-43.237 1.656,-43.23 C -7.836,-23.383 0.404,-10.558 0,0"
       style="fill:#c46ec0;fill-opacity:1;fill-rule:nonzero;stroke:none"
       transform="matrix(1.3333333,0,0,-1.3333333,7217.8583,879.514)"
       clip-path="url(#clipPath870)" />
  </g>
  <g
     id="layer-MC1"
     inkscape:groupmode="layer"
     inkscape:label="Marks &amp; Bleeds"
     transform="translate(-5635.7632,-492.46506)">
    <path
       id="path871"
       d="m 0,0 h -27 m 1959,0 h 27 M 0,-1080 h -27 m 1959,0 h 27 M 6,6 v 27 m 0,-1119 v -27 M 1926,6 v 27 m 0,-1119 v -27"
       style="fill:none;stroke:#ffffff;stroke-width:1.25;stroke-linecap:butt;stroke-linejoin:miter;stroke-miterlimit:10;stroke-dasharray:none;stroke-opacity:1"
       transform="matrix(1.3333333,0,0,-1.3333333,5152,0)" />
    <path
       id="path872"
       d="m 0,0 h -27 m 1959,0 h 27 M 0,-1080 h -27 m 1959,0 h 27 M 6,6 v 27 m 0,-1119 v -27 M 1926,6 v 27 m 0,-1119 v -27"
       style="fill:none;stroke:#000000;stroke-width:0.25;stroke-linecap:butt;stroke-linejoin:miter;stroke-miterlimit:10;stroke-dasharray:none;stroke-opacity:1"
       transform="matrix(1.3333333,0,0,-1.3333333,5152,0)" />
  </g>
</svg>
